<?xml version="1.0" encoding="utf-8"?>
<!-- Generator: Adobe Illustrator 25.2.1, SVG Export Plug-In . SVG Version: 6.00 Build 0)  -->
<svg version="1.1" id="Layer_1" xmlns="http://www.w3.org/2000/svg" xmlns:xlink="http://www.w3.org/1999/xlink" x="0px" y="0px"
	 viewBox="0 0 117.7 117.7" style="enable-background:new 0 0 117.7 117.7;" xml:space="preserve">
<style type="text/css">
	.st0{fill:#0069A0;}
</style>
<g>
	<path class="st0" d="M58.9,0C68,0,76.6,2.1,84.3,5.8c-3.2,2.5-6.1,4.9-8.8,7.2c-5.2-1.9-10.8-2.9-16.7-2.9
		c-13.5,0-25.7,5.5-34.5,14.3c-8.8,8.8-14.3,21-14.3,34.5s5.5,25.7,14.3,34.5s21,14.3,34.5,14.3s25.7-5.5,34.5-14.3
		c8.8-8.8,14.3-21,14.3-34.5c0-3.2-0.3-6.3-0.9-9.4c2.5-3.3,5.1-6.6,7.8-9.8c2.1,6,3.2,12.5,3.2,19.2c0,16.2-6.6,31-17.2,41.6
		s-25.4,17.2-41.6,17.2s-31-6.6-41.6-17.2C6.6,89.8,0,75.1,0,58.9s6.6-31,17.2-41.6S42.6,0,58.9,0L58.9,0z M31.4,49.2L45.8,49
		l1.1,0.3c2.9,1.7,5.6,3.6,8.2,5.7c1.8,1.6,3.6,3.3,5.3,5.1c5.2-8.3,10.6-15.9,16.4-22.9c6.3-7.7,13.1-14.6,20.2-21l1.4-0.5H114
		l-3.2,3.5C101.1,30,92.3,41.2,84.4,52.7C76.4,64.2,69.3,76,63,88.3l-2,3.8l-1.8-3.9c-3.3-7.2-7.3-13.8-12.1-19.6S36.7,57.5,30.3,53
		L31.4,49.2L31.4,49.2z"/>
</g>
</svg>
