<?xml version="1.0" encoding="utf-8"?>
<!-- Generator: Adobe Illustrator 25.2.1, SVG Export Plug-In . SVG Version: 6.00 Build 0)  -->
<svg version="1.1" id="Слой_1" xmlns="http://www.w3.org/2000/svg" xmlns:xlink="http://www.w3.org/1999/xlink" x="0px" y="0px"
	 viewBox="0 0 400 400" style="enable-background:new 0 0 400 400;" xml:space="preserve">
<style type="text/css">
	.st0{fill:#016599;}
</style>
<g>
	<g>
		<g>
			<path class="st0" d="M141.9,98.3c-1.4,0-2.8,0.5-3.8,1.4V86.3h-0.1h-13.3c1.1-1.2,1.7-2.7,1.7-4.5c0-3.6-2.8-6.5-6.3-6.5
				c0,0,0,0-0.1,0c0,0,0,0-0.1,0c-3.5,0-6.3,2.9-6.3,6.5c0,1.7,0.7,3.3,1.7,4.5h-13.3H102v13.3c-1.1-0.8-2.4-1.4-3.8-1.4
				c-3.5,0-6.3,2.9-6.3,6.5c0,3.6,2.8,6.5,6.3,6.5c1.4,0,2.8-0.5,3.8-1.4v13.3h0.1h13.4h0.1c-1.2-1.2-1.9-2.8-1.9-4.7
				c0-3.6,2.8-6.5,6.2-6.5c3.5,0,6.2,2.9,6.2,6.5c0,1.8-0.7,3.5-1.9,4.7h0.1h13.4h0.1V110c1.1,0.8,2.4,1.4,3.8,1.4
				c3.5,0,6.3-2.9,6.3-6.5C148.2,101.2,145.3,98.3,141.9,98.3z"/>
		</g>
	</g>
</g>
<g>
	<g>
		<g>
			<path class="st0" d="M131.3,181.8c-5.9-5.9-15.4-5.9-21.3,0c-5.9,5.9-5.9,15.4,0,21.3c5.2,5.2,13.2,5.8,19.1,1.8l11.1,11.1l4-4
				l-11.1-11.1C137,195.1,136.4,187,131.3,181.8z M127.8,199.7c-4,4-10.4,4-14.4,0c-4-4-4-10.4,0-14.4c4-4,10.4-4,14.4,0
				C131.8,189.3,131.8,195.7,127.8,199.7z"/>
			<path class="st0" d="M115.4,185.8l1.7,1.7c0,0,1.4-1.4,3.6-1.4c1.7,0,3.5,0.9,5.2,2.7l1.8-1.7c-2.2-2.3-4.5-3.4-6.9-3.5
				C117.6,183.7,115.6,185.6,115.4,185.8z"/>
		</g>
	</g>
</g>
<g>
	<g>
		<path class="st0" d="M256,197.3l-2.9-3.2c0.8-4.2,1.1-8.1,0.3-12.4c-2.3-13.1-9.2-17.9-9.2-17.9l-0.7-3.9l-0.6,3.9
			c0,0-6.9,4.8-9.2,17.9c-0.7,4.3-0.5,8.2,0.3,12.4l-2.9,3.2c0,0-3.2,5.3-1.5,15.4c0,0,3.5-6,7.6-6.9c0.1,0.2,0.1,0.4,0.2,0.6
			c0.2,0.8,0.5,1.6,0.7,2.4c0,0,1,1.2,5.4,1.2c4.4,0,5.4-1.2,5.4-1.2c0.3-0.8,0.5-1.6,0.7-2.4c0.1-0.2,0.1-0.4,0.2-0.6
			c4.1,1,7.6,6.9,7.6,6.9C259.2,202.6,256,197.3,256,197.3z M243.6,174.7c1.6,0,2.8,1.3,2.8,2.8c0,1.6-1.3,2.8-2.8,2.8
			c-1.6,0-2.8-1.3-2.8-2.8C240.8,175.9,242,174.7,243.6,174.7z"/>
	</g>
</g>
<g>
	<g>
		<g>
			<polygon class="st0" points="249.6,94.7 237.6,94.7 240.6,101.6 240.6,111.2 246.3,111.2 246.3,101.9 			"/>
			<rect x="235.5" y="112.2" class="st0" width="16.5" height="2.2"/>
			<polygon class="st0" points="235.5,119.7 243.6,122.9 252.1,119.7 252.1,115.3 235.5,115.3 			"/>
			<path class="st0" d="M262,93.9c0-10-8.1-18.1-18.1-18.1c-10,0-18.1,8.1-18.1,18.1c0,7,4,13,9.7,16.1v1.2h4.2v-9.4l-3.6-8h15
				l-3.9,8.4v9.1h4.8v-1.1C258,107.1,262,101,262,93.9z"/>
		</g>
	</g>
</g>
</svg>
