<?xml version="1.0" encoding="UTF-8"?>
<svg id="Layer_2" data-name="Layer 2" xmlns="http://www.w3.org/2000/svg" xmlns:xlink="http://www.w3.org/1999/xlink" viewBox="0 0 259.96 371.61">
  <defs>
    <style>
      .cls-1 {
        fill: url(#linear-gradient);
        isolation: isolate;
        opacity: .15;
      }

      .cls-1, .cls-2 {
        stroke-width: 0px;
      }

      .cls-2 {
        fill: url(#linear-gradient-2);
      }
    </style>
    <linearGradient id="linear-gradient" x1="0" y1="34.93" x2="255.14" y2="34.93" gradientTransform="translate(0 229.28) scale(1 -1)" gradientUnits="userSpaceOnUse">
      <stop offset="0" stop-color="#004d8c"/>
      <stop offset=".4" stop-color="#005899"/>
      <stop offset="1" stop-color="#006eb5"/>
    </linearGradient>
    <linearGradient id="linear-gradient-2" x1="5.15" y1="-142.22" x2="158.15" y2="80.21" gradientTransform="translate(0 229.28) scale(1 -1)" gradientUnits="userSpaceOnUse">
      <stop offset="0" stop-color="#00295f"/>
      <stop offset=".3" stop-color="#004075"/>
      <stop offset=".74" stop-color="#005b90"/>
      <stop offset="1" stop-color="#00659a"/>
    </linearGradient>
  </defs>
  <g id="Layer_1-2" data-name="Layer 1">
    <path class="cls-1" d="m203.48,353.5c41.4-28.1,61.8-88.4,46.7-128.5-22-58.1-64.9-41-108.3-105.6-37.7-56.2-31.4-98.7-53.7-102.1C61.08,13.2,28.58,72.5,14.68,113.1c-3.8,11-41.5,125.8,21.3,207.9,45.7,59.7,125.4,61.1,167.5,32.5Z"/>
    <path class="cls-2" d="m209.68,327.6c40.3-27.4,60.2-86.1,45.4-125.1-21.4-56.6-63.2-39.9-105.4-102.9C112.98,44.9,119.08,3.5,97.38.2,70.98-3.8,39.38,53.9,25.78,93.5c-3.7,10.7-40.4,122.5,20.8,202.4,44.6,58.2,122.1,59.6,163.1,31.7Z"/>
  </g>
</svg>