<?xml version="1.0" encoding="UTF-8"?>
<svg id="Layer_2" data-name="Layer 2" xmlns="http://www.w3.org/2000/svg" viewBox="0 0 224.9 93.1">
  <defs>
    <style>
      .cls-1 {
        fill-rule: evenodd;
      }

      .cls-1, .cls-2 {
        fill: #727270;
        stroke-width: 0px;
      }
    </style>
  </defs>
  <g id="_9" data-name="9">
    <polyline class="cls-1" points="202.8 51.9 209.2 58.4 199.7 67.9 224.9 67.9 224.9 77.1 199.7 77.1 209.2 86.6 202.8 93.1 182.2 72.5 202.8 51.9"/>
    <path class="cls-1" d="m130.4,58.7c-3.2,0-6,1.3-8.1,3.3-2.1,2.1-3.3,4.9-3.3,8.1s1.3,6,3.3,8.1c2.1,2.1,4.9,3.3,8.1,3.3s6-1.2,8.1-3.3,3.3-4.9,3.3-8.1-1.2-6-3.3-8.1c-2.1-2-4.9-3.3-8.1-3.3h0Zm.1,14.4h0c.6,0,1.1.5,1.1,1.1s-.5,1.1-1.1,1.1-1.1-.5-1.1-1.1c.1-.6.6-1.1,1.1-1.1h0Zm0-.6h0c-.3,0-.6-.1-.8-.3s-.3-.5-.3-.8v-6.8c0-.3.1-.6.3-.8s.5-.3.8-.3.6.1.8.3.3.5.3.8v6.8c0,.3-.1.6-.3.8s-.5.3-.8.3h0Zm-.1,11.3h0c-3.8,0-7.2-1.5-9.7-4s-4-5.9-4-9.7,1.5-7.2,4-9.7,5.9-4,9.7-4,7.2,1.5,9.7,4,4,5.9,4,9.7-1.5,7.2-4,9.7-5.9,4-9.7,4h0Z"/>
    <path class="cls-1" d="m136.8,23.5h0l.1-.2v.2h-.1Zm.3,0h0v-.4l.1-.1v.5h-.1Zm.3,0h0v-.6l.1-.1v.8h-.1v-.1Zm.3,0h0v-.9l.1-.1v1h-.1Zm.3,0h0v-1.2l.1-.1v1.3h-.1Zm.2,0h0v-1.5l.1-.1v1.6h-.1Zm.3,0h0v-1.8l.1-.1v1.9h-.1Zm.3,0h0v-2l.1-.1v2.2h-.1v-.1Zm.2,0h0v-2.3l.1-.1v2.4h-.1Zm.3,0h0v-2.6l.1-.1v2.7h-.1Zm1.4,0h0v-.6c.1.2.1.4,0,.6h0Zm-.1-1.2h0v1.2h-.1v-1.5h0c0,.1,0,.2.1.3h0Zm-.3-.7h0v1.9h-.1v-2.1c0,.1.1.2.1.2h0Zm-.3-.4h0v2.3h-.1v-2.5c0,.1.1.1.1.2h0Zm-6.6,4.7h0v.2h-.2v-.2h.2Zm0-.4h0v.2h-.2v-.2h.2Zm-.3-.3h.2v.2h-.2v-.2Zm-.3,0h.2v.2h-.2v-.2Zm.9,1.1h0v.2h-.2v-.2h.2Zm0-.4h0v.2h-.2v-.2h.2Zm0-.4h0v.2h-.2v-.2h.2Zm0-.3h0v.2h-.2v-.2h.2Zm-.2-.4h.2v.2h-.2v-.2Zm-.4,0h.2v.2h-.2v-.2Zm-.3,0h.2v.2h-.2v-.2Zm1.3,1.8h0v.2h-.2v-.2h.2Zm0-.3h0v.2h-.2v-.2h.2Zm0-.4h0v.2h-.2v-.2h.2Zm0-.4h0v.2h-.2v-.2h.2Zm0-.3h0v.2h-.2v-.2h.2Zm0-.4h0v.2h-.2v-.2h.2Zm-.2-.4h.2v.2h-.2v-.2Zm-.4,0h.2v.2h-.2v-.2Zm-.4,0h.2v.2h-.2v-.2Zm-.3,0h.2v.2h-.2v-.2Zm-.4,0h.2v.2h-.2v-.2Zm2.1,2.2h0v.2h-.2v-.2h.2Zm0-.3h0v.2h-.2v-.2h.2Zm0-.4h0v.2h-.2v-.2h.2Zm0-.4h0v.2h-.2v-.2h.2Zm0-.3h0v.2h-.2v-.2h.2Zm0-.4h0v.2h-.2v-.2h.2Zm0-.4h0v.2h-.2v-.2h.2Zm-.2-.4h.2v.2h-.2v-.2Zm-.4,0h.2v.2h-.2v-.2Zm-.4,0h.2v.2h-.2v-.2Zm-.4,0h.2v.2h-.2v-.2Zm-.3,0h.2v.2h-.2v-.2Zm-.4,0h.2v.2h-.2v-.2Zm2.4,3h0v.2h-.2v-.2h.2Zm0-.4h0v.2h-.2v-.2h.2Zm0-.3h0v.2h-.2v-.2h.2Zm0-.4h0v.2h-.2v-.2h.2Zm0-.4h0v.2h-.2v-.2h.2Zm0-.3h0v.2h-.2v-.2h.2Zm0-.4h0v.2h-.2v-.2h.2Zm0-.4h0v.2h-.2v-.2h.2Zm0-.4h0v.2h-.2v-.2h.2Zm-.2-.3h.2v.2h-.2v-.2Zm-.3,0h.2v.2h-.2v-.2Zm-.4,0h.2v.2h-.2v-.2Zm-.4,0h.2v.2h-.2v-.2Zm-.4,0h.2v.2h-.2v-.2Zm-.3,0h.2v.2h-.2v-.2Zm-.4,0h.2v.2h-.2v-.2Zm2.8,3.3h0v.2h-.2v-.2h.2Zm0-.4h0v.2h-.2v-.2h.2Zm0-.3h0v.2h-.2v-.2h.2Zm0-.4h0v.2h-.2v-.2h.2Zm0-.4h0v.2h-.2v-.2h.2Zm0-.3h0v.2h-.2v-.2h.2Zm0-.4h0v.2h-.2v-.2h.2Zm0-.4h0v.2h-.2v-.2h.2Zm0-.4h0v.2h-.2v-.2h.2Zm0-.3h0v.2h-.2v-.2h.2Zm-.2-.4h.2v.2h-.2v-.2Zm-.4,0h.2v.2h-.2v-.2Zm-.3,0h.2v.2h-.2v-.2Zm-.4,0h.2v.2h-.2v-.2Zm-.4,0h.2v.2h-.2v-.2Zm-.4,0h.2v.2h-.2v-.2Zm-.3,0h.2v.2h-.2v-.2Zm-.4,0h.2v.2h-.2v-.2Zm3.2,3.3h0v.2h-.2v-.2h.2Zm0-.3h0v.2h-.2v-.2h.2Zm0-.4h0v.2h-.2v-.2h.2Zm0-.4h0v.2h-.2v-.2h.2Zm0-.3h0v.2h-.2v-.2h.2Zm0-.4h0v.2h-.2v-.2h.2Zm0-.4h0v.2h-.2v-.2h.2Zm0-.4h0v.2h-.2v-.2h.2Zm0-.3h0v.2h-.2v-.2h.2Zm0-.4h0v.2h-.2v-.2h.2Zm-.2-.3h.2v.2h-.2v-.2Zm-.4,0h.2v.2h-.2v-.2Zm-.4,0h.2v.2h-.2v-.2Zm-.3,0h.2v.2h-.2v-.2Zm-.4,0h.2v.2h-.2v-.2Zm-.4,0h.2v.2h-.2v-.2Zm-.4,0h.2v.2h-.2v-.2Zm-.3,0h.2v.2h-.2v-.2Zm-.4,0h.2v.2h-.2v-.2Zm3.5,2.2h0v.2h-.2v-.2h.2Zm0-.4h0v.2h-.2v-.2h.2Zm0-.4h0v.2h-.2v-.2h.2Zm0-.4h0v.2h-.2v-.2h.2Zm0-.3h0v.2h-.2v-.2h.2Zm0-.4h0v.2h-.2v-.2h.2Zm-.9-.7h.2v.2h-.2v-.2Zm-.4,0h.2v.2h-.2v-.2Zm-.3,0h.2v.2h-.2v-.2Zm-.4,0h.2v.2h-.2v-.2Zm-.4,0h.2v.2h-.2v-.2Zm-.4,0h.2v.2h-.2v-.2Zm-.3,0h.2v.2h-.2v-.2Zm-.4,0h.2v.2h-.2v-.2Zm3.9,1.1h0v.2h-.2v-.2h.2Zm-1.7-1.5h.2v.2h-.2v-.2Zm-.3,0h.2v.2h-.2v-.2Zm-.4,0h.2v.2h-.2v-.2Zm-.4,0h.2v.2h-.2v-.2Zm-.4,0h.2v.2h-.2v-.2Zm-.3,0h.2v.2h-.2v-.2Zm1.5-.4h.2v.2h-.2v-.2Zm-.4,0h.2v.2h-.2v-.2Zm-.4,0h.2v.2h-.2v-.2Zm-.4,0h.2v.2h-.2v-.2Zm-.3,0h.2v.2h-.2v-.2Zm1.1-.3h.2v.2h-.2v-.2Zm-.4,0h.2v.2h-.2v-.2Zm-.4,0h.2v.2h-.2v-.2Zm.4-.4h.2v.2h-.2v-.2Zm-.4,0h.2v.2h-.2v-.2Zm1.7,6.4h0v-.1h-.2c-.1-.1-.2-.1-.3-.2h.2v-.2h-.2v.2c-.1,0-.1-.1-.2-.1h-.1c-.1-.1-.2-.2-.3-.2v-.1h-.1l-.2-.2v-.1h-.1l-.1-.1c0-.1-.1-.2-.2-.2h0c0-.1-.1-.1-.1-.2h.1v-.2h-.2v.1c0-.1-.1-.2-.2-.4v-.1h0v-.2h.1v-.2h-.1c-.1-.4-.2-.8-.2-1.2s0-.8.2-1.2h.1v-.2h-.1c0-.1.1-.1.1-.2h0v-.1c.1-.1.1-.2.2-.4v.1h.2v-.2h-.1c0-.1.1-.1.1-.2h0c.1-.1.2-.2.2-.3h.1v-.1c0-.1.1-.1.1-.1l.1.1h0v.2h.2l.2.2h0v.2h.2l.2.2h0v.2h.2l.2.2h0v.2h.2l.2.2h0v.2h.2l.2.2h0v.2h.2l.2.2v.2h.2l.2.2v.2h.2l.1.1-.1.5v-.1h-.2v.2h.1v.2h-.1v.2h0v.2h0l-.2.7h-.2v.2h.1v.2h-.1v.2h0l-.3.9h-.1v.2h.1l-.1.2h0v.3c-.1,0-.2-.1-.3-.1h.1v-.2h-.2v.2q-.3-.6-.4-.6h0Zm4.7-.9h0c-.7.7-1.8,1.2-3,1.2h-.5c-.2,0-.3,0-.5-.1l1.1-4h4.2c0,1.1-.5,2.1-1.3,2.9h0Zm-1.3-6.9h0c.5.2.9.5,1.3.8l-2.9,2.9-2.9-2.9c.4-.3.8-.6,1.3-.8s1-.3,1.6-.3c.5,0,1,.1,1.6.3h0Zm-13.9,1h0v.7h-5.6v-.7h5.6Zm-.7,1.4h0v.7h-4.2v-.7h4.2Zm-.7,1.3h0v.7h-2.7v-.7h2.7Zm7.5.2h0v.1c0,3.4,2.7,6.1,6.1,6.1,2.7,0,5-1.7,5.8-4.1.3-.7.4-1.4.4-2.2,0-3.4-2.8-6.1-6.1-6.1-3.5.1-6.2,2.9-6.2,6.2h0Zm-7.3-4.7h0c0-.3-.2-.5-.5-.5h0v-.1c.2-1.8.5-3,.9-3.8v3.8c0,.3.1.6.2.8h2.2v6.7h-2.1v4.1c0,.7.6,1.3,1.3,1.3s1.3-.6,1.3-1.3v-9.1h.2v9.1c0,.7.6,1.3,1.3,1.3s1.3-.6,1.3-1.3c0-5.1.1-10.1.1-15.1,0,0,.1-.3.1-.5v.1c1.1,1.1,2.4,2.4,4.3,2.7-2.6,1.1-4.4,3.6-4.4,6.6,0,3.9,3.2,7.1,7.1,7.1s7.1-3.2,7.1-7.1-3.2-7.1-7.1-7.1h-.2c.1-.2.2-.5.2-.8-.1-.7-.7-1.2-1.4-1.1-1.6.1-2.5-.7-3.8-2-.6-.6-1.2-1.2-1.9-1.7-.6-.5-1.2-.9-1.8-1.2v-.5c.9-.4,1.6-1.4,1.6-2.6,0-1.6-1.3-2.9-2.9-2.9s-2.8,1.3-2.8,2.9c0,1.1.6,2.1,1.6,2.6v.4c-2.6.9-4.3,5-4.8,8.3v.5h-.1c-.3,0-.5.2-.5.5v.5h-2.4v5.9h7.9v-5.9h-2.4v-.6h.4Zm16.6,1.9h0v2.7h-.1v-2.8s.1.1.1.1h0Z"/>
    <path class="cls-1" d="m74.2,6.8h-6.7c-.3,0-.5.1-.8.4h0c-.2.2-.3.5-.3.8v.1h9v-.2c0-.3-.2-.6-.4-.8-.2-.2-.5-.3-.8-.3h0Zm-6.7-1.9h6.7c.9,0,1.6.3,2.2.8.5.5.9,1.4.9,2.2v.2h3.7c1.9,0,3.6,1.6,3.6,3.6v12.7c0,2-1.6,3.7-3.6,3.7h-20.2c-2,0-3.7-1.6-3.7-3.7v-12.7c0-1.9,1.6-3.6,3.7-3.6h3.6v-.1c0-.9.4-1.7.9-2.2.6-.6,1.4-.9,2.2-.9h0Z"/>
    <path class="cls-1" d="m78.6,61.9q0-.1-.1-.2c0-.1-.1-.1-.1-.2s-.1-.1-.1-.2c0,0-.1-.1-.2-.1s-.1-.1-.1-.1c-.1,0-2.1-.8-4-.9l-.3.5h0l.7,5.3-.8,1.4-.8-1.4.7-5.3h0l-.2-.5c-1.9.1-3.9.8-4,.9-.1,0-.1.1-.1.1-.1,0-.1.1-.2.1s-.1.1-.1.2-.1.1-.1.1c0,.1,0,.2-.1.2v.1l-.8,6.9h2l.7-6c.1,0,.2,0,.3-.1v6.1h5.7v-6.1c.1,0,.2.1.3.1l.7,6h2l-.8-6.9c-.1.1-.2,0-.2,0h0Zm-25.9,7.3h27.4v4.5h-27.4v-4.5Zm5.8-3.6h1.7v1.8h-1.7v-1.8Zm-3.2-1.5h8.2v4.8h-8.2v-4.8Zm18.3-4c1.4,0,2.5-1.6,2.5-3.1,0-1.4-1.1-2.5-2.5-2.5s-2.6,1.1-2.6,2.5c.1,1.5,1.2,3.1,2.6,3.1h0Z"/>
    <path class="cls-1" d="m211.3,8.5c-.1-.6-.4-1.2-.9-1.6l-5.9-5.9c-.5-.5-1.1-.8-1.7-.9h0v-.1h-8.9c-1.8,0-3.2,1.4-3.2,3.2v21.3c.1,1.6,1.5,3,3.2,3h14.2c1.7,0,3.2-1.4,3.2-3.1v-15.9h0Zm-4.9,6.9h-10.7c-.6,0-1.1.5-1.1,1.1s.5,1,1.1,1h10.7c.6,0,1-.5,1-1,0-.6-.4-1.1-1-1.1h0Zm0,4.2h-10.7c-.6,0-1.1.5-1.1,1,0,.6.5,1.1,1.1,1.1h10.7c.6,0,1-.5,1-1.1,0-.5-.4-1-1-1h0Zm-2.7-16.5h0l4.6,4.5h-3.5c-.6,0-1.1-.5-1.1-1.1v-3.4Zm5.5,21.2h0c0,.6-.5,1.1-1.1,1.1h-14.2c-.6,0-1.1-.5-1.1-1.1V3.2c0-.6.5-1.1,1.1-1.1h7.7v4.4c0,1.8,1.4,3.2,3.2,3.2h4.4v14.6h0Z"/>
    <path class="cls-1" d="m19.7,5.6l-6.1,6.1-6-6.1c-.7-.7-2-.6-2.9.2l-2.7,2.8c-.8.8-.9,2.1-.2,2.9l6.1,6-6.1,6.1c-.7.7-.6,2,.2,2.8l2.7,2.8c.9.8,2.2.9,2.9.2l6-6.1,6.1,6.1c.7.7,2,.6,2.8-.2l2.8-2.8c.8-.8.9-2.1.2-2.8l-6.1-6.1,6.1-6c.7-.8.6-2-.2-2.9l-2.8-2.8c-.8-.8-2-.9-2.8-.2h0Z"/>
    <rect class="cls-2" y="62" width="24.7" height="3.8"/>
    <rect class="cls-2" y="69" width="24.7" height="3.7"/>
    <rect class="cls-2" y="75.9" width="24.7" height="3.8"/>
    <rect class="cls-2" y="55" width="24.7" height="3.7"/>
  </g>
</svg>